# xmcd
#
# Track frame offsets:
#	150
#	30615
#	105348
#	136675
#	180378
#	208666
#	231602
#
# Disc length: 3866 seconds
#
# Revision: 1
# Processed by: cddbd v1.5.2PL0 Copyright (c) Steve Scherf et al.
# Submitted via: audiograbber 1.83.01
#
DISCID=550f1807
DTITLE=Grateful Dead - 91-06-22 Soldier Field, Chicago IL
DYEAR=1900
DGENRE=
TTITLE0=Hell In A Bucket
TTITLE1=Shakedown Street
TTITLE2=Wang Dang Doodle
TTITLE3=Friend Of The Devil
TTITLE4=When I Paint My Masterpiece
TTITLE5=Brown Eyed Women
TTITLE6=Let It Grow
EXTD=
EXTT0=
EXTT1=
EXTT2=
EXTT3=
EXTT4=
EXTT5=
EXTT6=
PLAYORDER=
